<?xml version="1.0" encoding="UTF-8" standalone="no"?>
<svg xmlns="http://www.w3.org/2000/svg" width="100%" height="100%" viewBox="0 0 1200 800" preserveAspectRatio="xMidYMid slice">
  <defs>
    <linearGradient id="bgGrad" x1="0%" y1="0%" x2="100%" y2="100%">
      <stop offset="0%" style="stop-color:#0d1b2a;stop-opacity:1" />
      <stop offset="100%" style="stop-color:#133054;stop-opacity:1" />
    </linearGradient>
    <radialGradient id="spotlightGrad" cx="20%" cy="30%" r="50%" fx="20%" fy="30%">
      <stop offset="0%" style="stop-color:#4361ee;stop-opacity:0.4" />
      <stop offset="100%" style="stop-color:#4361ee;stop-opacity:0" />
    </radialGradient>
  </defs>
  
  <!-- Background -->
  <rect width="100%" height="100%" fill="url(#bgGrad)"/>
  
  <!-- Abstract Code Elements -->
  <g opacity="0.15">
    <text x="100" y="100" font-family="monospace" font-size="12" fill="#7ea8ff">function initSkills() {</text>
    <text x="120" y="120" font-family="monospace" font-size="12" fill="#7ea8ff">  const skills = ['IBM ELM', 'Db2', 'AWS', 'Python'];</text>
    <text x="120" y="140" font-family="monospace" font-size="12" fill="#7ea8ff">  return skills.map(skill => ({</text>
    <text x="140" y="160" font-family="monospace" font-size="12" fill="#7ea8ff">    name: skill,</text>
    <text x="140" y="180" font-family="monospace" font-size="12" fill="#7ea8ff">    level: getSkillLevel(skill)</text>
    <text x="120" y="200" font-family="monospace" font-size="12" fill="#7ea8ff">  }));</text>
    <text x="100" y="220" font-family="monospace" font-size="12" fill="#7ea8ff">}</text>
    
    <text x="600" y="300" font-family="monospace" font-size="12" fill="#7ea8ff">class Experience {</text>
    <text x="620" y="320" font-family="monospace" font-size="12" fill="#7ea8ff">  constructor(title, company, period) {</text>
    <text x="640" y="340" font-family="monospace" font-size="12" fill="#7ea8ff">    this.title = title;</text>
    <text x="640" y="360" font-family="monospace" font-size="12" fill="#7ea8ff">    this.company = company;</text>
    <text x="640" y="380" font-family="monospace" font-size="12" fill="#7ea8ff">    this.period = period;</text>
    <text x="620" y="400" font-family="monospace" font-size="12" fill="#7ea8ff">  }</text>
    <text x="600" y="420" font-family="monospace" font-size="12" fill="#7ea8ff">}</text>
    
    <text x="200" y="500" font-family="monospace" font-size="12" fill="#7ea8ff">const projects = [</text>
    <text x="220" y="520" font-family="monospace" font-size="12" fill="#7ea8ff">  {</text>
    <text x="240" y="540" font-family="monospace" font-size="12" fill="#7ea8ff">    name: 'Food Ordering Chatbot',</text>
    <text x="240" y="560" font-family="monospace" font-size="12" fill="#7ea8ff">    tech: ['GCP', 'Dialogflow', 'AI']</text>
    <text x="220" y="580" font-family="monospace" font-size="12" fill="#7ea8ff">  },</text>
    <text x="220" y="600" font-family="monospace" font-size="12" fill="#7ea8ff">  {</text>
    <text x="240" y="620" font-family="monospace" font-size="12" fill="#7ea8ff">    name: 'Store Analysis',</text>
    <text x="240" y="640" font-family="monospace" font-size="12" fill="#7ea8ff">    tech: ['Tableau', 'Data Analytics']</text>
    <text x="220" y="660" font-family="monospace" font-size="12" fill="#7ea8ff">  }</text>
    <text x="200" y="680" font-family="monospace" font-size="12" fill="#7ea8ff">];</text>
  </g>
  
  <!-- Hexagon Pattern -->
  <g opacity="0.1">
    <path d="M150,200 L175,215 L175,245 L150,260 L125,245 L125,215 Z" fill="none" stroke="#4cc9f0" stroke-width="1" />
    <path d="M250,300 L275,315 L275,345 L250,360 L225,345 L225,315 Z" fill="none" stroke="#4cc9f0" stroke-width="1" />
    <path d="M350,200 L375,215 L375,245 L350,260 L325,245 L325,215 Z" fill="none" stroke="#4cc9f0" stroke-width="1" />
    <path d="M450,300 L475,315 L475,345 L450,360 L425,345 L425,315 Z" fill="none" stroke="#4cc9f0" stroke-width="1" />
    <path d="M550,200 L575,215 L575,245 L550,260 L525,245 L525,215 Z" fill="none" stroke="#4cc9f0" stroke-width="1" />
    <path d="M650,300 L675,315 L675,345 L650,360 L625,345 L625,315 Z" fill="none" stroke="#4cc9f0" stroke-width="1" />
    <path d="M750,200 L775,215 L775,245 L750,260 L725,245 L725,215 Z" fill="none" stroke="#4cc9f0" stroke-width="1" />
    <path d="M850,300 L875,315 L875,345 L850,360 L825,345 L825,315 Z" fill="none" stroke="#4cc9f0" stroke-width="1" />
    <path d="M950,200 L975,215 L975,245 L950,260 L925,245 L925,215 Z" fill="none" stroke="#4cc9f0" stroke-width="1" />
    <path d="M1050,300 L1075,315 L1075,345 L1050,360 L1025,345 L1025,315 Z" fill="none" stroke="#4cc9f0" stroke-width="1" />
    
    <path d="M150,400 L175,415 L175,445 L150,460 L125,445 L125,415 Z" fill="none" stroke="#4cc9f0" stroke-width="1" />
    <path d="M250,500 L275,515 L275,545 L250,560 L225,545 L225,515 Z" fill="none" stroke="#4cc9f0" stroke-width="1" />
    <path d="M350,400 L375,415 L375,445 L350,460 L325,445 L325,415 Z" fill="none" stroke="#4cc9f0" stroke-width="1" />
    <path d="M450,500 L475,515 L475,545 L450,560 L425,545 L425,515 Z" fill="none" stroke="#4cc9f0" stroke-width="1" />
    <path d="M550,400 L575,415 L575,445 L550,460 L525,445 L525,415 Z" fill="none" stroke="#4cc9f0" stroke-width="1" />
    <path d="M650,500 L675,515 L675,545 L650,560 L625,545 L625,515 Z" fill="none" stroke="#4cc9f0" stroke-width="1" />
    <path d="M750,400 L775,415 L775,445 L750,460 L725,445 L725,415 Z" fill="none" stroke="#4cc9f0" stroke-width="1" />
    <path d="M850,500 L875,515 L875,545 L850,560 L825,545 L825,515 Z" fill="none" stroke="#4cc9f0" stroke-width="1" />
    <path d="M950,400 L975,415 L975,445 L950,460 L925,445 L925,415 Z" fill="none" stroke="#4cc9f0" stroke-width="1" />
    <path d="M1050,500 L1075,515 L1075,545 L1050,560 L1025,545 L1025,515 Z" fill="none" stroke="#4cc9f0" stroke-width="1" />
  </g>
  
  <!-- Spotlight Effect -->
  <circle cx="240" cy="240" r="400" fill="url(#spotlightGrad)" />
  
  <!-- Floating Skills Elements -->
  <g opacity="0.8">
    <circle cx="180" cy="180" r="30" fill="#0f1e3d" stroke="#4361ee" stroke-width="1" opacity="0.7" />
    <text x="180" y="184" font-family="Arial" font-size="10" fill="#e6f1ff" text-anchor="middle">IBM ELM</text>
    
    <circle cx="380" cy="280" r="25" fill="#0f1e3d" stroke="#4361ee" stroke-width="1" opacity="0.7" />
    <text x="380" y="284" font-family="Arial" font-size="10" fill="#e6f1ff" text-anchor="middle">Db2</text>
    
    <circle cx="600" cy="180" r="20" fill="#0f1e3d" stroke="#4361ee" stroke-width="1" opacity="0.7" />
    <text x="600" y="184" font-family="Arial" font-size="10" fill="#e6f1ff" text-anchor="middle">AWS</text>
    
    <circle cx="800" cy="280" r="27" fill="#0f1e3d" stroke="#4361ee" stroke-width="1" opacity="0.7" />
    <text x="800" y="284" font-family="Arial" font-size="10" fill="#e6f1ff" text-anchor="middle">Python</text>
    
    <circle cx="250" cy="450" r="28" fill="#0f1e3d" stroke="#4361ee" stroke-width="1" opacity="0.7" />
    <text x="250" y="454" font-family="Arial" font-size="10" fill="#e6f1ff" text-anchor="middle">SQL</text>
    
    <circle cx="500" cy="550" r="32" fill="#0f1e3d" stroke="#4361ee" stroke-width="1" opacity="0.7" />
    <text x="500" y="554" font-family="Arial" font-size="10" fill="#e6f1ff" text-anchor="middle">Tableau</text>
  </g>
</svg>