<?xml version="1.0" encoding="UTF-8" standalone="no"?>
<svg xmlns="http://www.w3.org/2000/svg" width="100%" height="100%" viewBox="0 0 1200 800" preserveAspectRatio="xMidYMid slice">
  <defs>
    <radialGradient id="grad1" cx="50%" cy="50%" r="100%" fx="50%" fy="50%">
      <stop offset="0%" style="stop-color:#0d1b2a;stop-opacity:1" />
      <stop offset="100%" style="stop-color:#0f1e3d;stop-opacity:1" />
    </radialGradient>
    <linearGradient id="grad2" x1="0%" y1="0%" x2="100%" y2="100%">
      <stop offset="0%" style="stop-color:#4361ee;stop-opacity:0.3" />
      <stop offset="100%" style="stop-color:#4cc9f0;stop-opacity:0.3" />
    </linearGradient>
  </defs>
  
  <!-- Background -->
  <rect width="100%" height="100%" fill="url(#grad1)"/>
  
  <!-- Circuit Patterns -->
  <g opacity="0.2">
    <!-- Horizontal Lines -->
    <path d="M0,100 L1200,100" stroke="#4cc9f0" stroke-width="1" />
    <path d="M0,300 L1200,300" stroke="#4cc9f0" stroke-width="1" />
    <path d="M0,500 L1200,500" stroke="#4cc9f0" stroke-width="1" />
    <path d="M0,700 L1200,700" stroke="#4cc9f0" stroke-width="1" />
    
    <!-- Vertical Lines -->
    <path d="M200,0 L200,800" stroke="#4cc9f0" stroke-width="1" />
    <path d="M400,0 L400,800" stroke="#4cc9f0" stroke-width="1" />
    <path d="M600,0 L600,800" stroke="#4cc9f0" stroke-width="1" />
    <path d="M800,0 L800,800" stroke="#4cc9f0" stroke-width="1" />
    <path d="M1000,0 L1000,800" stroke="#4cc9f0" stroke-width="1" />
    
    <!-- Circuit Nodes -->
    <circle cx="200" cy="100" r="5" fill="#4361ee" />
    <circle cx="400" cy="300" r="5" fill="#4361ee" />
    <circle cx="600" cy="500" r="5" fill="#4361ee" />
    <circle cx="800" cy="700" r="5" fill="#4361ee" />
    <circle cx="200" cy="300" r="5" fill="#4361ee" />
    <circle cx="400" cy="700" r="5" fill="#4361ee" />
    <circle cx="1000" cy="100" r="5" fill="#4361ee" />
    <circle cx="1000" cy="500" r="5" fill="#4361ee" />
    
    <!-- Circuit Paths -->
    <path d="M200,100 C300,100 300,300 400,300" stroke="#4361ee" stroke-width="2" fill="none" />
    <path d="M400,300 C500,300 500,500 600,500" stroke="#4361ee" stroke-width="2" fill="none" />
    <path d="M600,500 C700,500 700,700 800,700" stroke="#4361ee" stroke-width="2" fill="none" />
    <path d="M200,300 C300,300 300,700 400,700" stroke="#4361ee" stroke-width="2" fill="none" />
    <path d="M400,300 C600,300 800,300 1000,100" stroke="#4361ee" stroke-width="2" fill="none" />
    <path d="M600,500 C800,500 800,500 1000,500" stroke="#4361ee" stroke-width="2" fill="none" />
  </g>
  
  <!-- Digital particles -->
  <g opacity="0.5">
    <circle cx="100" cy="150" r="2" fill="#7ea8ff" />
    <circle cx="150" cy="250" r="2" fill="#7ea8ff" />
    <circle cx="250" cy="400" r="2" fill="#7ea8ff" />
    <circle cx="550" cy="150" r="2" fill="#7ea8ff" />
    <circle cx="750" cy="350" r="2" fill="#7ea8ff" />
    <circle cx="850" cy="200" r="2" fill="#7ea8ff" />
    <circle cx="950" cy="450" r="2" fill="#7ea8ff" />
    <circle cx="350" cy="650" r="2" fill="#7ea8ff" />
    <circle cx="650" cy="650" r="2" fill="#7ea8ff" />
    <circle cx="950" cy="700" r="2" fill="#7ea8ff" />
    <circle cx="1050" cy="250" r="2" fill="#7ea8ff" />
  </g>
  
  <!-- Glowing effect in one corner -->
  <circle cx="100" cy="100" r="300" fill="url(#grad2)" opacity="0.3" />
</svg>